<svg width="645" height="461" viewBox="0 0 645 461" fill="none" xmlns="http://www.w3.org/2000/svg">
<path d="M0 162H207C245.66 162 277 193.34 277 232V391.5C277 429.608 246.108 460.5 208 460.5H192.5C155.497 460.5 125.5 430.503 125.5 393.5H180.25C195.576 393.5 208 381.076 208 365.75C208 350.424 195.576 338 180.25 338H119C86.9675 338 61 312.033 61 280H184C197.255 280 208 269.255 208 256C208 242.745 197.255 232 184 232H70C31.3401 232 0 200.66 0 162Z" fill="#C53512"/>
<path d="M645 162H438C399.34 162 368 193.34 368 232V391.5C368 429.608 398.892 460.5 437 460.5H452.5C489.503 460.5 519.5 430.503 519.5 393.5H464.75C449.424 393.5 437 381.076 437 365.75C437 350.424 449.424 338 464.75 338H526C558.033 338 584 312.033 584 280H461C447.745 280 437 269.255 437 256C437 242.745 447.745 232 461 232H575C613.66 232 645 200.66 645 162Z" fill="#C53512"/>
<path d="M288 64.5C288 45.4462 303.446 30 322.5 30C341.554 30 357 45.4462 357 64.5V131.072V426.5C357 445.554 341.554 461 322.5 461C303.446 461 288 445.554 288 426.5V364.26V284.124V200.379V131.072V64.5Z" fill="#C53512"/>
<path d="M478 38V14.5C478 6.49187 471.508 0 463.5 0C455.492 0 449 6.49187 449 14.5V38H386C373.85 38 364 47.8497 364 60C364 72.1503 373.85 82 386 82H449V108.5C449 116.508 455.492 123 463.5 123C471.508 123 478 116.508 478 108.5V82V38Z" fill="#C53512"/>
<path d="M167 38V14.5C167 6.49187 173.492 0 181.5 0C189.508 0 196 6.49187 196 14.5V38H259C271.15 38 281 47.8497 281 60C281 72.1503 271.15 82 259 82H196V108.5C196 116.508 189.508 123 181.5 123C173.492 123 167 116.508 167 108.5V82V38Z" fill="#C53512"/>
<path d="M514 38.5V25.5C514 17.4919 507.508 11 499.5 11C491.492 11 485 17.4919 485 25.5V38.5V82.5V97.5C485 105.508 491.492 112 499.5 112C507.508 112 514 105.508 514 97.5V82.5V38.5Z" fill="#C53512" fill-opacity="0.6"/>
<path d="M131 38.5V25.5C131 17.4919 137.492 11 145.5 11C153.508 11 160 17.4919 160 25.5V38.5V82.5V97.5C160 105.508 153.508 112 145.5 112C137.492 112 131 105.508 131 97.5V82.5V38.5Z" fill="#C53512" fill-opacity="0.6"/>
<path d="M550 43.9653V37.5C550 29.4919 543.508 23 535.5 23C527.492 23 521 29.4919 521 37.5V43.9653V77.5099V85.5C521 93.5081 527.492 100 535.5 100C543.508 100 550 93.5081 550 85.5V77.5099V43.9653Z" fill="#C53512" fill-opacity="0.3"/>
<path d="M95 43.9653V37.5C95 29.4919 101.492 23 109.5 23C117.508 23 124 29.4919 124 37.5V43.9653V77.5099V85.5C124 93.5081 117.508 100 109.5 100C101.492 100 95 93.5081 95 85.5V77.5099V43.9653Z" fill="#C53512" fill-opacity="0.3"/>
</svg>
